<svg xmlns="http://www.w3.org/2000/svg" viewBox="0 0 26 27" enable-background="new 0 0 26 27"><path fill="#3fa8dc" d="m16.576 20.859c.051-.015.102-.03.152-.047.135-.042.27-.087.404-.134-.016.001-.029.001-.045.001-.412.163-.832.274-1.256.327.001.001.485-.071.745-.147"/><path fill="#595958" d="m21.986 16.239c.084-.164.162-.328.236-.493.025-.056.047-.112.07-.169.047-.109.092-.218.133-.327.025-.068.049-.137.074-.205.033-.098.066-.194.098-.292.023-.074.045-.148.064-.223.027-.092.051-.183.074-.274.02-.077.037-.155.055-.233.02-.087.035-.174.053-.262.014-.079.029-.159.043-.239.014-.084.021-.169.033-.253.01-.081.021-.161.029-.241.164-1.724-.381-3.644-1.748-5.266-.52-.011-1.234-.015-1.705.057 1.045 1.038 2.209 2.918 2.318 4.656.004.08.004.162.008.242.002.085.006.17.006.256 0 .081-.002.162-.004.243-.004.089-.006.178-.012.267-.004.079-.01.159-.018.239-.008.094-.018.188-.029.281-.008.077-.018.153-.029.23-.016.102-.033.202-.051.304-.014.071-.025.143-.041.215-.023.114-.051.229-.078.344-.016.059-.029.119-.045.178-.047.175-.098.35-.156.523-.547 1.646-1.504 3-2.648 3.923 1.292-.729 2.464-1.927 3.27-3.481"/><path fill="#3e3e3c" d="m24.711 8.394c-.484-.186-.986-.582-1.492-.676-.52-.098-1.504.021-2.039.018.008.009.014.018.021.026 1.367 1.622 1.912 3.542 1.748 5.266-.008.08-.02.16-.029.241-.012.084-.02.169-.033.253-.014.08-.029.16-.043.239-.018.088-.033.175-.053.262-.018.078-.035.155-.055.233-.023.092-.047.183-.074.274-.02.074-.041.148-.064.223-.031.098-.064.194-.098.292-.025.068-.049.137-.074.205-.041.109-.086.218-.133.327-.023.057-.045.113-.07.169-.074.165-.152.329-.236.493-.807 1.554-1.979 2.752-3.27 3.48-.512.411-1.061.735-1.629.96.016 0 .029 0 .045-.001.076-.026.154-.054.23-.081.004-.002.01-.005.016-.007.205-.077.408-.16.609-.246.041-.018.082-.035.121-.053.207-.092.41-.188.609-.289.002-.001.004-.002.006-.003.199-.102.395-.209.588-.32.027-.016.057-.032.086-.049.393-.231.77-.481 1.129-.75.02-.015.039-.028.057-.042.182-.138.361-.279.533-.426l.002-.001c2.355-1.999 3.826-4.823 3.826-7.954 0-.464-.097-1.529-.234-2.063"/><g fill="#3fa8dc"><path d="m22.543 7.88c.057.008.113.017.17.026-.057-.009-.113-.017-.17-.026"/><path d="m24.11 8.213c.15.042.301.088.449.136-.187-.063-.328-.104-.449-.136"/><path d="m21.449 7.768c-.102-.005-.219-.01-.342-.013.459.013.912.052 1.357.114-.331-.048-.669-.083-1.015-.101"/></g><path fill="#2673b7" d="m22.465 7.869c.025.004.053.008.078.012-.025-.005-.053-.008-.078-.012"/><path fill="#848382" d="m21.365 15.797c.059-.174.109-.349.156-.523.016-.059.029-.119.045-.178.027-.115.055-.229.078-.344.016-.072.027-.144.041-.215.018-.102.035-.202.051-.304.012-.077.021-.153.029-.23.012-.094.021-.188.029-.281.008-.08.014-.16.018-.239.006-.089.008-.178.012-.267.002-.081.004-.163.004-.243 0-.086-.004-.171-.006-.256-.004-.081-.004-.163-.008-.242-.109-1.738-.834-3.487-2.326-4.66-.533.055-1.057.143-1.568.262-.596.139-1.174.326-1.734.547 1.59.538 2.9 1.675 3.666 3.142.035.067.066.138.1.207.035.073.07.145.104.219.029.069.057.141.084.211.029.077.061.154.088.232.023.07.045.141.068.211.025.083.049.167.072.251.018.069.035.138.051.208.021.091.039.183.057.275.012.065.023.131.035.197.016.105.027.212.039.318.004.056.012.11.016.167.014.163.021.329.021.496 0 2.303-1.203 4.324-3.02 5.472-.268.17-.549.32-.84.45-.291.128-.592.237-.902.323 0 0 .002 0 .002.001.002 0 .002 0 .002.001.424-.054.844-.164 1.256-.327.568-.225 1.117-.549 1.629-.96 1.143-.92 2.1-2.276 2.647-3.921"/><g fill="#2673b7"><path d="m21.1 7.754c.004 0 .008 0 .012 0-.004 0-.008 0-.012 0"/><path d="m24.11 8.213c-.207-.058-.414-.111-.625-.158-.256-.058-.514-.106-.775-.148.383.063.762.145 1.137.24.084.021.168.041.263.066"/><path d="m20.938 3.707c.072.054.143.109.213.165-.071-.056-.141-.111-.213-.165"/><path d="m21.34 4.03c.004.002.006.005.01.008-.004-.003-.006-.006-.01-.008"/><path d="m5.087 4.477c1.604-1.471 3.597-2.524 5.805-2.992.834-.176 1.699-.271 2.585-.271 2.778 0 5.343.913 7.411 2.455-2.07-1.552-4.643-2.471-7.427-2.471-5.837 0-10.73 4.04-12.04 9.468.594-2.418 1.894-4.56 3.671-6.189"/><path d="m1.097 14.417c-.002.032-.006.064-.008.097.002-.033.006-.065.008-.097"/><path d="m1.069 13.59c0-1.01.121-1.986.348-2.923-.21.859-.333 1.752-.354 2.671-.002.1-.008.199-.008.3 0 .295.014.586.034.876.002-.032.006-.064.008-.097-.018-.273-.028-.549-.028-.827"/><path d="m24.11 7.243c.012.009.014.037.023.046-.738-1.234-1.674-2.349-2.779-3.256 1.092.902 2.026 1.988 2.756 3.21"/><path d="m1.097 14.417c-.002.032-.006.064-.008.097.236 3.385 1.829 6.395 4.237 8.491-.092-.103-.183-.206-.271-.312-2.262-2.089-3.743-5.01-3.958-8.276"/><path d="m21.15 3.872c.064.051.127.101.189.153-.062-.052-.124-.103-.189-.153"/><path d="m20.889 3.669c.016.013.033.025.049.038-.016-.013-.034-.025-.049-.038"/><path d="m1.109 14.281c0 .002 0 .002 0 .002-.004.045-.008.09-.012.134.004-.044.008-.088.012-.132 0 0 0-.002 0-.004"/></g><path fill="#3e3e3c" d="m1.097 14.417c.004-.044.008-.089.012-.134 0 0 0 0 0-.002v.004c-.004.044-.008.088-.012.132.215 3.267 1.696 6.188 3.958 8.276-1.644-1.949-2.701-4.428-2.888-7.151-.02-.288-.034-.577-.034-.87 0-.1.005-.198.008-.297.081-3.48 1.575-6.604 3.925-8.795 1.564-1.46 3.506-2.506 5.659-2.97.813-.175 1.657-.281 2.521-.27 3.574.047 7.164 1.771 9.383 4.541.162.117.32.237.477.361-.73-1.222-1.664-2.308-2.756-3.21-.004-.003-.006-.005-.01-.008-.062-.052-.125-.102-.189-.153-.07-.056-.141-.111-.213-.165-.016-.013-.033-.026-.049-.039-2.068-1.542-4.633-2.455-7.41-2.455-.887 0-1.752.095-2.586.271-2.209.47-4.201 1.524-5.805 2.994-1.778 1.63-3.078 3.771-3.671 6.19-.227.938-.348 1.917-.348 2.923 0 .278.01.554.028.827"/><path fill="#3fa8dc" d="m6.784 24.03c-.616-.395-1.194-.843-1.729-1.338.088.105.179.209.271.312.483.42 1.458 1.026 1.458 1.026"/><path fill="#595958" d="m4.613 18.05c-.009-.1-.013-.198-.02-.297-.234-3.474.971-6.719 3.112-9.114 1.426-1.595 3.266-2.812 5.368-3.47.794-.248 1.624-.418 2.485-.496 2.979-.271 6.299.948 8.568 2.578-2.221-2.771-6.096-4.907-9.881-4.907-.864 0-1.708.094-2.521.27-2.152.463-4.094 1.509-5.658 2.969-2.35 2.192-3.844 5.315-3.925 8.795-.002.099-.008.197-.008.297 0 .293.014.582.034.87.005-.076.013-.151.019-.228 0-.001 0-.002 0-.002s0 .001 0 .002c-.006.076-.014.151-.019.228.187 2.724 1.243 5.202 2.887 7.151.536.495 1.114.943 1.729 1.338-1.033-1.487-1.754-3.225-2.059-5.121-.045-.285-.085-.572-.111-.863"/><g fill="#00a19a"><path d="m24.715 8.396c-.02-.007-.039-.012-.059-.018"/><path d="m4.723 18.679c0 .001 0 .002 0 .002 0 .077 0 .153.001.229-.002-.076-.001-.152-.001-.229 0 0 0-.001 0-.002"/></g><path fill="#727171" d="m20.785 7.756c-.977-.017-1.924.116-2.834.328-.596.139-1.172.326-1.732.547-.381.151-.754.32-1.115.506-2.531 1.301-4.559 3.442-5.708 6.06-.394.898-.683 1.852-.856 2.845-.121.696-.188 1.41-.188 2.141 0 .153.006.305.012.456.001.045.006.088.008.132v.004c.039.822.156 1.625.347 2.398.002.009.005.018.007.026.045.184.095.366.148.546.01.033.021.064.031.098.049.156.098.311.152.466.026.074.056.147.084.222.042.11.081.222.125.331.063.156.131.31.201.462-.952-.323-1.852-.76-2.684-1.293-1.033-1.487-1.754-3.225-2.059-5.121-.002-.076-.001-.152-.001-.229 0-.001 0-.002 0-.003v.002c0 .077 0 .153.001.229-.045-.285-.085-.572-.112-.863-.009-.1-.013-.198-.02-.297-.234-3.474.971-6.719 3.112-9.114 1.426-1.595 3.266-2.812 5.368-3.47.794-.248 1.624-.418 2.485-.496 2.979-.271 5.803.582 8.07 2.212.162.116.32.237.477.361.224.372.427.757.611 1.153 0 0-2.596-.617-3.93-.64"/><g fill="#2673b7"><path d="m22.928 21.678c-.053.061-.105.12-.156.18.052-.06.103-.12.156-.18"/><path d="m22.266 22.395c-.01.011-.02.021-.029.031.009-.011.019-.021.029-.031"/><path d="m22.541 22.11c-.029.031-.057.062-.086.093.029-.03.057-.061.086-.093"/></g><g fill="#00a19a"><path d="m22.771 21.857c-.076.085-.152.169-.23.252.078-.083.154-.167.23-.252"/><path d="m22.455 22.2c-.062.064-.125.129-.189.192.064-.063.127-.126.189-.192"/><path d="m22.928 21.678c.006-.008.014-.017.02-.024 0 0 0 0 0 .001-.007.007-.014.015-.02.023"/><path d="m8.625 21.903c-.03-.113-.054-.229-.081-.344-.018-.077-.038-.153-.053-.23-.032-.159-.06-.319-.086-.479l-.05-.074c.023.504.081.999.162 1.485.011-.129.15-.197.108-.358"/><path d="m8.525 22.342c.002.001.004.002.006.003-.005-.028-.01-.056-.014-.084-.002.024-.001.051.008.081"/></g><path fill="#3e3e3c" d="m22.875 21.689c-.055.028-.111.058-.168.086-1.729 1.134-3.762 1.876-5.939 2.118-1.256.139-2.561.114-3.882-.101-1.467-.238-3.103-.824-4.354-1.448.049.279.104.557.17.829.002.009.005.018.007.026.045.184.095.366.148.546.01.033.021.064.031.098.049.157.098.312.152.467.026.074.056.147.084.222.042.11.082.222.125.331.064.156.132.311.202.463 1.263.434 2.618.669 4.03.669 3.756-.001 7.122-1.669 9.397-4.306"/><path fill="#595958" d="m8.547 22.353c1.252.625 2.869 1.202 4.338 1.44 1.322.215 2.626.239 3.882.101 2.178-.242 4.211-.984 5.939-2.118-1.973.984-4.236 1.481-6.578 1.387-1.264-.052-2.549-.272-3.823-.684-1.417-.456-2.707-1.112-3.851-1.919-.03-.195-.056-.392-.077-.589-.012-.117-.019-.234-.027-.353 0-.004-.001-.008-.001-.011-.009.19-.015.383-.015.576 0 .059.001.115.003.173.001 0-.039.861.21 1.997"/><g fill="#2673b7"><path d="m22.98 21.614c.016-.02.033-.038.049-.058-.031.022-.062.045-.094.066.016-.002.03-.005.045-.008"/><path d="m22.98 21.614c-.012.014-.021.026-.033.04 0-.001 0-.001 0-.001.012-.014.023-.026.035-.04 0 .001-.002.001-.002.001"/><path d="m22.707 21.775c.08-.04.16-.08.24-.121.012-.014.021-.026.033-.04-.016.003-.029.006-.045.009-.076.052-.152.102-.228.152"/></g><path fill="#848382" d="m8.355 20.504c1.144.806 2.534 1.519 3.951 1.975 1.274.411 2.56.632 3.823.684 2.342.095 4.605-.402 6.578-1.387.076-.051.152-.101.229-.152-.82.17-1.668.262-2.539.262-.197 0-.395-.005-.592-.015-1.361-.063-2.662-.351-3.875-.818-.031-.012-.062-.022-.094-.034 0-.001 0-.001 0-.001-2.786-1.101-5.077-3.178-6.453-5.81-.001-.003-.003-.006-.004-.009-.394.898-.682 1.852-.855 2.845-.089.512-.148 1.033-.174 1.564 0 .003 0 .007.001.011 0-.001-.051.655.004.885"/></svg>