<svg xmlns="http://www.w3.org/2000/svg" viewBox="0 0 26 27" enable-background="new 0 0 26 27"><path fill="#3ba9e0" d="m16.786 21.19c.054-.016.107-.033.16-.049.145-.047.286-.092.428-.143-.016.003-.031.003-.047.003-.435.172-.881.289-1.329.344 0 0 .513-.074.788-.155"/><path fill="#34a4c1" d="m22.513 16.299c.09-.172.172-.348.251-.523.025-.059.05-.119.075-.178.048-.115.097-.23.14-.346.027-.074.053-.146.078-.219.036-.104.071-.205.104-.309.024-.078.047-.156.069-.236.027-.098.053-.193.076-.289.021-.084.041-.164.06-.247.02-.093.037-.185.055-.278.016-.084.033-.168.047-.253.013-.089.023-.179.034-.269.011-.085.024-.17.032-.255.174-1.826-.404-3.857-1.851-5.575-.551-.012-1.306-.017-1.806.06 1.106 1.099 2.339 3.089 2.452 4.929.006.085.008.171.01.257.003.091.007.18.007.271 0 .084-.003.171-.005.257-.003.093-.006.188-.012.282-.004.084-.012.168-.018.254-.01.098-.019.198-.031.298-.01.083-.021.163-.032.245-.017.107-.034.213-.055.32-.013.076-.026.152-.041.227-.025.121-.056.244-.084.365-.017.062-.03.125-.048.188-.049.186-.104.371-.165.555-.578 1.742-1.591 3.178-2.804 4.152 1.367-.771 2.609-2.039 3.462-3.683"/><path fill="#2e8eaf" d="m25.397 7.993c-.511-.197-1.044-.616-1.579-.716-.551-.104-1.592.022-2.158.019.007.009.014.019.022.028 1.446 1.717 2.024 3.749 1.851 5.575-.008.085-.021.17-.032.255-.011.089-.021.18-.034.269-.014.085-.031.169-.047.253-.018.093-.035.185-.055.278-.019.083-.039.163-.06.247-.023.096-.049.191-.076.289-.022.08-.045.158-.069.236-.032.104-.067.205-.104.309-.025.072-.051.145-.078.219-.043.115-.092.23-.14.346-.025.059-.05.119-.075.178-.079.176-.161.352-.251.523-.853 1.645-2.095 2.912-3.461 3.684-.541.438-1.123.779-1.725 1.018.016 0 .031 0 .047-.002.082-.027.164-.057.244-.086.006-.002.011-.004.017-.008.22-.08.434-.168.646-.26.043-.018.085-.037.128-.057.219-.096.435-.197.646-.305.002-.002.004-.002.005-.004.212-.107.419-.221.623-.338.03-.018.06-.035.09-.053.416-.244.815-.51 1.197-.795.02-.014.04-.029.06-.043.192-.146.382-.297.564-.453h.001c2.495-2.115 4.052-5.104 4.052-8.42 0-.493-.104-1.621-.249-2.186"/><g fill="#3ba9e0"><path d="m23.1 7.449c.06.009.119.018.179.028-.06-.01-.12-.019-.179-.028"/><path d="m24.765 7.801c.161.045.319.094.477.145-.2-.068-.348-.111-.477-.145"/><path d="m21.943 7.33c-.106-.006-.23-.011-.361-.015.486.015.966.055 1.437.121-.352-.05-.709-.086-1.076-.106"/></g><path fill="#2072b9" d="m23.02 7.437c.028.004.057.009.085.013-.029-.005-.057-.01-.085-.013"/><path fill="#55bfcc" d="m21.855 15.83c.062-.184.116-.369.165-.555.018-.062.031-.125.048-.188.028-.121.059-.244.084-.365.015-.074.028-.15.041-.227.021-.107.038-.213.055-.32.012-.082.022-.162.032-.245.013-.1.021-.2.031-.298.006-.085.014-.17.018-.254.006-.094.009-.188.012-.282.002-.086.005-.173.005-.257 0-.091-.004-.18-.007-.271-.002-.085-.004-.172-.01-.257-.113-1.839-.88-3.69-2.461-4.932-.563.058-1.119.15-1.66.277-.631.147-1.243.345-1.834.579 1.68.57 3.068 1.774 3.88 3.327.036.071.07.146.105.218.036.077.074.153.108.231.031.074.06.149.089.224.032.082.064.164.093.246.025.074.05.149.072.224.026.088.053.177.077.266.019.073.037.146.055.22.021.097.042.194.06.292.013.069.024.139.036.208.018.111.029.224.041.338.006.059.013.115.02.176.013.172.02.348.02.523 0 2.439-1.273 4.578-3.19 5.795-.283.18-.58.338-.891.475-.306.137-.625.252-.954.344 0 0 .002 0 .003 0 .449-.055.896-.172 1.33-.344.602-.238 1.184-.58 1.725-1.018 1.212-.972 2.224-2.408 2.802-4.15"/><g fill="#2072b9"><path d="m21.57 7.315c.004 0 .008 0 .012 0-.004 0-.008 0-.012 0"/><path d="m24.765 7.801c-.218-.061-.439-.117-.661-.167-.271-.062-.545-.113-.821-.157.407.067.806.153 1.204.254.087.023.176.043.278.07"/><path d="m21.402 3.03c.077.057.152.116.227.175-.074-.059-.15-.118-.227-.175"/><path d="m21.828 3.367c.005.003.008.006.012.008-.004-.002-.007-.005-.012-.008"/><path d="m4.623 3.846c1.698-1.556 3.807-2.672 6.145-3.167.883-.187 1.798-.287 2.737-.287 2.941 0 5.656.966 7.845 2.599-2.19-1.643-4.913-2.616-7.863-2.616-6.179 0-11.359 4.272-12.75 10.02.627-2.56 2-4.827 3.886-6.552"/><path d="m.398 14.369c-.003.035-.007.068-.009.104.003-.035.006-.069.009-.104"/><path d="m.369 13.494c0-1.066.128-2.103.369-3.096-.223.91-.353 1.856-.375 2.829-.003.106-.008.211-.008.317 0 .312.015.62.036.929.002-.035.005-.068.009-.104-.021-.289-.031-.581-.031-.875"/><path d="m24.758 6.774c.011.009.014.04.023.048-.78-1.307-1.771-2.486-2.941-3.447 1.155.956 2.145 2.105 2.918 3.399"/><path d="m.398 14.369c-.003.035-.007.068-.009.104.25 3.582 1.936 6.77 4.485 8.988-.098-.107-.193-.219-.287-.33-2.393-2.211-3.961-5.303-4.189-8.762"/><path d="m21.629 3.206c.066.053.134.106.199.161-.065-.054-.133-.108-.199-.161"/><path d="m21.351 2.991c.017.014.034.027.052.04-.018-.013-.036-.027-.052-.04"/><path d="m.411 14.227c0 .002 0 .002 0 .002-.004.047-.008.094-.012.141.004-.047.008-.094.012-.141 0 0 0 0 0-.002"/></g><path fill="#32829e" d="m.398 14.369c.004-.047.008-.094.012-.141 0 0 0 0 0-.002v.002c-.004.047-.008.094-.012.141.228 3.459 1.795 6.551 4.189 8.762-1.741-2.064-2.859-4.688-3.057-7.57-.021-.307-.035-.611-.035-.922 0-.105.005-.211.007-.314.086-3.685 1.668-6.99 4.156-9.311 1.656-1.546 3.712-2.653 5.992-3.144.86-.186 1.752-.297 2.668-.285 3.783.05 7.584 1.874 9.935 4.807.171.123.339.25.505.382-.772-1.294-1.763-2.443-2.918-3.399-.004-.002-.007-.005-.012-.008-.065-.055-.133-.108-.199-.161-.074-.059-.149-.118-.227-.175-.018-.013-.035-.026-.052-.04-2.189-1.632-4.904-2.599-7.845-2.599-.939 0-1.854.1-2.737.287-2.338.495-4.447 1.611-6.145 3.167-1.883 1.725-3.259 3.992-3.886 6.552-.241.993-.369 2.029-.369 3.096.001.294.011.586.03.875"/><path fill="#3ba9e0" d="m6.419 24.547c-.652-.418-1.265-.893-1.831-1.416.094.111.189.223.287.33.512.443 1.544 1.086 1.544 1.086"/><path fill="#358ca5" d="m4.12 18.211c-.01-.104-.014-.209-.021-.312-.248-3.678 1.028-7.114 3.294-9.65 1.51-1.688 3.457-2.977 5.683-3.673.841-.263 1.721-.442 2.633-.525 3.151-.286 6.668 1 9.07 2.729-2.35-2.934-6.453-5.195-10.461-5.195-.916 0-1.808.099-2.668.285-2.279.491-4.335 1.598-5.99 3.143-2.488 2.321-4.07 5.626-4.156 9.311-.002.104-.007.209-.007.314 0 .311.014.615.035.922.005-.082.014-.162.02-.24 0-.002 0-.004 0-.004s0 .002 0 .004c-.006.078-.015.158-.02.24.198 2.883 1.316 5.506 3.057 7.57.566.523 1.179.998 1.831 1.416-1.094-1.574-1.858-3.414-2.181-5.422-.048-.3-.09-.603-.118-.913"/><g fill="#00a19a"><path d="m25.401 7.995c-.021-.007-.041-.012-.061-.019"/><path d="m4.237 18.881c0 .002 0 .002 0 .002 0 .08-.001.162.001.242-.002-.08-.001-.162-.001-.24 0-.002 0-.002 0-.004"/></g><path fill="#3ca5b9" d="m21.24 7.318c-1.032-.018-2.035.122-2.998.347-.632.147-1.242.345-1.836.58-.402.16-.796.338-1.179.536-2.681 1.377-4.828 3.645-6.04 6.417-.417.949-.723 1.959-.906 3.01-.129.736-.2 1.494-.2 2.268 0 .162.007.322.012.482.001.047.007.092.008.139v.006c.041.869.166 1.719.368 2.537.003.01.005.02.007.029.048.193.101.387.158.576.01.035.022.07.033.105.051.164.104.33.16.492.028.078.06.156.089.234.045.117.087.236.134.352.067.164.139.328.213.488-1.01-.342-1.961-.805-2.841-1.369-1.094-1.574-1.858-3.414-2.181-5.422-.002-.08-.001-.162-.001-.24 0-.002 0-.002 0-.004v.002c0 .08-.001.162.001.242-.048-.301-.09-.604-.118-.914-.01-.104-.014-.209-.021-.312-.248-3.678 1.028-7.114 3.294-9.65 1.51-1.688 3.457-2.977 5.683-3.673.841-.263 1.721-.442 2.633-.525 3.151-.286 6.142.616 8.543 2.342.171.123.339.25.505.382.234.394.449.801.644 1.22 0 0-2.748-.653-4.161-.677"/><g fill="#2072b9"><path d="m23.51 22.05c-.056.066-.11.129-.166.191.055-.062.11-.125.166-.191"/><path d="m22.809 22.816c-.01.01-.021.02-.031.031.009-.011.021-.021.031-.031"/><path d="m23.1 22.512c-.031.035-.062.066-.092.1.03-.034.06-.065.092-.1"/></g><g fill="#00a19a"><path d="m23.344 22.246c-.08.09-.161.178-.242.266.081-.088.163-.176.242-.266"/><path d="m23.01 22.611c-.066.068-.133.135-.201.205.068-.07.134-.136.201-.205"/><path d="m23.51 22.05c.006-.008.015-.016.021-.025 0 0 0 0 0 .002-.008.007-.015.015-.021.023"/><path d="m8.368 22.295c-.032-.121-.057-.242-.085-.363-.019-.084-.04-.164-.057-.246-.034-.168-.063-.338-.091-.506l-.053-.078c.025.531.085 1.057.171 1.572.012-.139.16-.209.115-.379"/><path d="m8.263 22.76c.002 0 .004 0 .006.002-.006-.029-.01-.059-.016-.088-.002.025-.001.053.01.086"/></g><path fill="#2e8eaf" d="m23.454 22.07c-.059.029-.118.061-.179.09-1.83 1.201-3.979 1.988-6.285 2.242-1.332.148-2.714.121-4.113-.105-1.552-.252-3.285-.873-4.608-1.533.051.295.109.59.179.877.003.01.006.02.008.029.048.193.101.387.158.576.011.035.022.07.033.105.051.164.104.33.161.492.027.078.059.156.088.234.043.117.086.236.133.352.067.164.139.328.213.49 1.337.457 2.771.707 4.265.707 3.975.001 7.539-1.765 9.947-4.556"/><path fill="#34a4c1" d="m8.285 22.77c1.326.662 3.038 1.273 4.592 1.525 1.399.227 2.781.254 4.113.105 2.306-.254 4.455-1.041 6.285-2.242-2.088 1.043-4.484 1.57-6.963 1.469-1.338-.055-2.699-.287-4.048-.723-1.5-.484-2.866-1.18-4.077-2.031-.032-.207-.059-.416-.081-.625-.013-.123-.02-.248-.029-.373 0-.004 0-.008-.001-.012-.009.203-.015.406-.015.611 0 .061.001.121.002.182 0 0-.042.912.222 2.114"/><g fill="#2072b9"><path d="m23.565 21.988c.018-.02.035-.041.053-.061-.033.023-.066.047-.1.07.015-.003.032-.005.047-.009"/><path d="m23.565 21.988c-.012.014-.022.027-.034.043 0-.002 0-.002 0-.002.012-.014.024-.027.037-.041-.001 0-.001 0-.003 0"/><path d="m23.275 22.16c.086-.043.171-.084.256-.127.012-.016.022-.029.034-.043-.016.004-.032.006-.047.01-.08.055-.161.107-.243.16"/></g><path fill="#49bad1" d="m8.08 20.812c1.211.855 2.683 1.607 4.182 2.092 1.349.436 2.71.668 4.048.723 2.479.102 4.875-.426 6.963-1.469.082-.053.162-.105.243-.16-.868.182-1.767.277-2.688.277-.209 0-.417-.006-.625-.016-1.441-.068-2.82-.371-4.104-.867-.033-.012-.066-.021-.1-.035-.001 0-.001-.002-.001-.002-2.949-1.164-5.374-3.363-6.831-6.15-.001-.002-.003-.006-.004-.008-.417.949-.723 1.959-.906 3.01-.095.543-.158 1.094-.184 1.656 0 .004 0 .008.001.012.001 0-.052.695.006.937"/></svg>